{
	"asset":{
		"generator":"Khronos glTF Blender I/O v4.0.44",
		"version":"2.0"
	},
	"scene":0,
	"scenes":[
		{
			"name":"Scene",
			"nodes":[
				0
			]
		}
	],
	"nodes":[
		{
			"mesh":0,
			"name":"Beicon",
			"rotation":[
				0.5,
				0.5,
				-0.5,
				0.5
			],
			"scale":[
				0.05849561467766762,
				0.05849561467766762,
				0.05849561467766762
			],
			"translation":[
				0,
				0,
				1.7000000476837158
			]
		}
	],
	"materials":[
		{
			"doubleSided":true,
			"name":"Material.001",
			"pbrMetallicRoughness":{
				"metallicFactor":0,
				"roughnessFactor":0.5
			}
		}
	],
	"meshes":[
		{
			"name":"Beicon",
			"primitives":[
				{
					"attributes":{
						"POSITION":0,
						"NORMAL":1
					},
					"indices":2,
					"material":0
				}
			]
		}
	],
	"accessors":[
		{
			"bufferView":0,
			"componentType":5126,
			"count":1525,
			"max":[
				70.04021453857422,
				10,
				-0.7949193120002747
			],
			"min":[
				0,
				-3.469446951953614e-15,
				-44.43230438232422
			],
			"type":"VEC3"
		},
		{
			"bufferView":1,
			"componentType":5126,
			"count":1525,
			"type":"VEC3"
		},
		{
			"bufferView":2,
			"componentType":5123,
			"count":3000,
			"type":"SCALAR"
		}
	],
	"bufferViews":[
		{
			"buffer":0,
			"byteLength":18300,
			"byteOffset":0,
			"target":34962
		},
		{
			"buffer":0,
			"byteLength":18300,
			"byteOffset":18300,
			"target":34962
		},
		{
			"buffer":0,
			"byteLength":6000,
			"byteOffset":36600,
			"target":34963
		}
	],
	"buffers":[
		{
			"byteLength":42600,
			"uri":"BeGLTF.bin"
		}
	]
}
